<svg xmlns="http://www.w3.org/2000/svg" xmlns:xlink="http://www.w3.org/1999/xlink" version="1.1" id="Capa_1" x="0px" y="0px" viewBox="0 0 498.923 498.923" style="enable-background:new 0 0 498.923 498.923;" xml:space="preserve" width="52px" height="52px">

<g class="currentLayer"><title>Layer 1</title><g id="svg_1" class="" fill="#ffdf00" fill-opacity="1">
	<g id="svg_2" fill="#ffdf00" fill-opacity="1">
		<g id="svg_3" fill="#ffdf00" fill-opacity="1">
			<path d="M249.462,0C151.018,0,70.951,80.106,70.951,178.511c0,92.436,133.617,192.453,172.248,315.948     c0.83,2.667,3.322,4.484,6.116,4.465c2.804-0.039,5.256-1.876,6.048-4.563c37.478-126.533,172.6-223.307,172.609-315.869     C427.963,80.106,347.886,0,249.462,0z M249.462,313.925c-77.184,0-139.987-62.812-139.987-139.987     c0-77.184,62.803-139.987,139.987-139.987c77.165,0,139.977,62.803,139.977,139.987     C389.439,251.113,326.626,313.925,249.462,313.925z" fill="#ffdf00" id="svg_4" fill-opacity="1"/>
		</g>
	</g>
</g><g id="svg_5">
</g><g id="svg_6">
</g><g id="svg_7">
</g><g id="svg_8">
</g><g id="svg_9">
</g><g id="svg_10">
</g><g id="svg_11">
</g><g id="svg_12">
</g><g id="svg_13">
</g><g id="svg_14">
</g><g id="svg_15">
</g><g id="svg_16">
</g><g id="svg_17">
</g><g id="svg_18">
</g><g id="svg_19">
</g><path fill="#ffdf00" fill-opacity="1" stroke="none" stroke-opacity="1" stroke-width="1" stroke-dasharray="none" stroke-linejoin="miter" stroke-linecap="butt" stroke-dashoffset="" fill-rule="nonzero" opacity="1" marker-start="" marker-mid="" marker-end="" id="svg_20" d="M 119.67426086911306 257.87761023165723 L 102.65957446808511 282.44680851063833" style="color: rgb(255, 223, 0);"/><path fill="#ffdf00" stroke-dashoffset="" fill-rule="nonzero" marker-start="" marker-mid="" marker-end="" id="svg_22" d="M108.26439886735665,175.08790134401647 L108.26439886735665,175.08790134401647 C108.26439886735665,96.9454913433504 171.6113489095396,33.59853854699774 249.75375551277048,33.59853854699774 L249.75375551277048,33.59853854699774 C287.2790499020464,33.59853854699774 323.2674375205887,48.50540200663023 349.80181969379777,75.03980432534577 C376.3362303547926,101.57421613997779 391.2431121581735,137.562576835437 391.2431121581735,175.08790134401647 L391.2431121581735,175.08790134401647 C391.2431121581735,253.23030184874537 327.8961621159911,316.5772641410301 249.75375551277048,316.5772641410301 L249.75375551277048,316.5772641410301 C171.61135840546555,316.5772641410301 108.26439886735665,253.23030184874537 108.26439886735665,175.08790134401647 zM179.009077190058,175.08790134401647 L179.009077190058,175.08790134401647 C179.009077190058,214.1590968484159 210.68257120300737,245.8325827425232 249.75375551277048,245.8325827425232 C288.8249683103036,245.8325827425232 320.49843383547176,214.1590968484159 320.49843383547176,175.08790134401647 C320.49843383547176,136.0167058396117 288.82494931844377,104.34321994550338 249.75375551277048,104.34321994550338 L249.75375551277048,104.34321994550338 C210.68257120300737,104.34321994550338 179.009077190058,136.01671533554097 179.009077190058,175.08790134401647 z" style="color: rgb(255, 223, 0);" class=""/><path fill="#ffdf00" stroke-dashoffset="" fill-rule="nonzero" marker-start="" marker-mid="" marker-end="" id="svg_24" d="M206.7756888868207,87.10184033598159 L206.7756888868207,87.10184033598159 C206.7756888868207,83.5766200578324 209.63344516225152,80.71886378240157 213.1586654404007,80.71886378240157 L213.1586654404007,80.71886378240157 C214.85153534900593,80.71886378240157 216.4750711386703,81.39135362947775 217.67211057181834,82.588393919401 C218.86915129012894,83.78543463771193 219.54164199398068,85.4089691422132 219.54164199398068,87.10184033598159 L219.54164199398068,87.10184033598159 C219.54164199398068,90.62706018574325 216.68388571855004,93.48481688956167 213.1586654404007,93.48481688956167 L213.1586654404007,93.48481688956167 C209.63344559063893,93.48481688956167 206.7756888868207,90.62706018574325 206.7756888868207,87.10184033598159 zM209.96717716361061,87.10184033598159 L209.96717716361061,87.10184033598159 C209.96717716361061,88.86445004666861 211.3960561581014,90.29332861277163 213.1586654404007,90.29332861277163 C214.92127600786296,90.29332861277163 216.35015371719078,88.86445004666861 216.35015371719078,87.10184033598159 C216.35015371719078,85.33923062529465 214.92127515108783,83.91035205919164 213.1586654404007,83.91035205919164 L213.1586654404007,83.91035205919164 C211.3960561581014,83.91035205919164 209.96717716361061,85.3392310536823 209.96717716361061,87.10184033598159 z" style="color: rgb(255, 223, 0);"/><path fill="#000000" fill-opacity="1" stroke="none" stroke-opacity="1" stroke-width="1" stroke-dasharray="none" stroke-linejoin="miter" stroke-linecap="butt" stroke-dashoffset="" fill-rule="nonzero" opacity="1" marker-start="" marker-mid="" marker-end="" d="M178.5319086892738,174.58417958078107 C178.5319086892738,134.65772260106084 210.09591717797147,102.31729244748747 249.06382889241303,102.31729244748747 C288.03174060685456,102.31729244748747 319.59574909555226,134.65772260106084 319.59574909555226,174.58417958078107 C319.59574909555226,214.51063656050127 288.03174060685456,246.85106671407468 249.06382889241303,246.85106671407468 C210.09591717797147,246.85106671407468 178.5319086892738,214.51063656050127 178.5319086892738,174.58417958078107 z" id="svg_27" class=""/></g></svg>