<?xml version="1.0" encoding="UTF-8" standalone="no"?>
<!-- Created with Inkscape (http://www.inkscape.org/) -->

<svg
   xmlns:dc="http://purl.org/dc/elements/1.1/"
   xmlns:cc="http://creativecommons.org/ns#"
   xmlns:rdf="http://www.w3.org/1999/02/22-rdf-syntax-ns#"
   xmlns:svg="http://www.w3.org/2000/svg"
   xmlns="http://www.w3.org/2000/svg"
   xmlns:sodipodi="http://sodipodi.sourceforge.net/DTD/sodipodi-0.dtd"
   xmlns:inkscape="http://www.inkscape.org/namespaces/inkscape"
   width="16.126961mm"
   height="23.383718mm"
   viewBox="0 0 57.142774 82.855697"
   id="svg7498"
   version="1.1"
   inkscape:version="0.91 r13725"
   sodipodi:docname="busstop.svg">
  <defs
     id="defs7500" />
  <sodipodi:namedview
     id="base"
     pagecolor="#ffffff"
     bordercolor="#666666"
     borderopacity="1.0"
     inkscape:pageopacity="0.0"
     inkscape:pageshadow="2"
     inkscape:zoom="1.979899"
     inkscape:cx="51.560946"
     inkscape:cy="-15.863529"
     inkscape:document-units="px"
     inkscape:current-layer="layer1-76"
     showgrid="false"
     inkscape:window-width="944"
     inkscape:window-height="1002"
     inkscape:window-x="960"
     inkscape:window-y="0"
     inkscape:window-maximized="0"
     fit-margin-top="0"
     fit-margin-left="0"
     fit-margin-right="0"
     fit-margin-bottom="0" />
  <metadata
     id="metadata7503">
    <rdf:RDF>
      <cc:Work
         rdf:about="">
        <dc:format>image/svg+xml</dc:format>
        <dc:type
           rdf:resource="http://purl.org/dc/dcmitype/StillImage" />
        <dc:title></dc:title>
      </cc:Work>
    </rdf:RDF>
  </metadata>
  <g
     inkscape:groupmode="layer"
     id="layer3"
     inkscape:label="Layer 2">
    <rect
       style="fill:#3d3d3d;fill-opacity:1;stroke:none;stroke-width:2;stroke-linecap:round;stroke-linejoin:round;stroke-miterlimit:4;stroke-dasharray:none;stroke-opacity:1"
       id="rect8046-5-3"
       width="52.831539"
       height="46.482655"
       x="215.23077"
       y="171.69562"
       transform="translate(-212.85719,-169.50503)" />
  </g>
  <g
     inkscape:label="Layer 1"
     inkscape:groupmode="layer"
     id="layer1"
     transform="translate(-212.85719,-169.50503)">
    <g
       id="layer1-7"
       inkscape:label="Layer 1"
       transform="translate(1.2712693,105.27361)">
      <g
         transform="translate(-5.0939289,-33.541192)"
         id="layer1-5"
         inkscape:label="Layer 1">
        <g
           transform="translate(-22.946384,31.808064)"
           id="layer1-71"
           inkscape:label="Layer 1">
          <g
             transform="matrix(0.97218825,0,0,1.0401157,2.2450165,-5.5492391)"
             id="layer1-3"
             inkscape:label="Layer 1">
            <g
               transform="translate(59.599,5.0507633)"
               id="layer1-1"
               inkscape:label="Layer 1">
              <g
                 transform="translate(-79.296975,-2.5253819)"
                 id="layer1-8"
                 inkscape:label="Layer 1">
                <g
                   transform="translate(5.5558393,-2.0203051)"
                   id="layer1-16"
                   inkscape:label="Layer 1">
                  <g
                     transform="matrix(1.0286074,0,0,0.9614315,39.072384,22.322891)"
                     id="layer1-6"
                     inkscape:label="Layer 1">
                    <g
                       transform="translate(-1.5152282,-3.5355342)"
                       id="layer1-76"
                       inkscape:label="Layer 1">
                      <g
                         style="fill:#ffffff;fill-opacity:1"
                         transform="matrix(0.07337471,0,0,0.06045878,224.48037,61.836167)"
                         id="g4885">
                        <g
                           style="fill:#ffffff;fill-opacity:1"
                           id="g4843">
                          <g
                             style="fill:#ffffff;fill-opacity:1"
                             id="g4845">
                            <path
                               inkscape:connector-curvature="0"
                               style="fill:#ffffff;fill-opacity:1"
                               d="m 453.5,78 c -3.333,-14 -9,-24.667 -17,-32 -8,-7.333 -19.667,-14 -35,-20 C 386.167,19.333 364.167,13.333 335.5,8 306.833,2.667 280.666,0 257,0 c -23.667,0 -49.833,2.667 -78.5,8 -28.667,5.333 -50.667,11.333 -66,18 -15.333,6 -27,12.667 -35,20 -8,7.333 -13.333,18 -16,32 l -20,160 0,223 31,0 0,20 c 0,13.333 4.167,22.667 12.5,28 8.333,5.333 16.833,5.333 25.5,0 8.667,-5.333 13,-14.667 13,-28 l 0,-20 256,0 0,20 c 0,13.333 5.167,22.667 15.5,28 10.333,5.333 20.5,5.333 30.5,0 10,-5.333 15,-14.667 15,-28 l 0,-20 31,0 0,-223 -18,-160 z m -303,-39.5 c 2.667,-5 7.334,-7.5 14,-7.5 l 205,0 0,30 -205,0 c -6.667,0 -11.333,-2.5 -14,-7.5 -2.667,-5 -2.667,-10 0,-15 z m -73,195.5 17,-122 c 1.333,-6.667 7,-10 17,-10 l 293,0 c 10,0 15.667,3.333 17,10 l 17,124 c 0.667,2 1,3.333 1,4 0,4.667 -1.667,8.5 -5,11.5 -3.333,3 -7.667,4.5 -13,4.5 l -327,0 c -5.333,0 -9.667,-1.667 -13,-5 -3.333,-3.333 -5,-7.667 -5,-13 0,-1.333 0.333,-2.667 1,-4 z m 53,149.5 c -6.667,6.333 -14.5,9.5 -23.5,9.5 -9,0 -16.833,-3.167 -23.5,-9.5 -6.667,-6.333 -10,-14 -10,-23 0,-9 3.333,-16.667 10,-23 6.667,-6.333 14.5,-9.5 23.5,-9.5 9,0 16.833,3.167 23.5,9.5 6.667,6.333 10,14 10,23 0,9 -3.333,16.667 -10,23 z m 302,0 c -6.667,6.333 -14.5,9.5 -23.5,9.5 -9,0 -16.833,-3.167 -23.5,-9.5 -6.667,-6.333 -10,-14 -10,-23 0,-9 3.333,-16.667 10,-23 6.667,-6.333 14.5,-9.5 23.5,-9.5 9,0 16.833,3.167 23.5,9.5 6.667,6.333 10,14 10,23 0,9 -3.333,16.667 -10,23 z"
                               id="path4847" />
                          </g>
                        </g>
                        <g
                           style="fill:#ffffff;fill-opacity:1"
                           id="g4849" />
                        <g
                           style="fill:#ffffff;fill-opacity:1"
                           id="g4851" />
                        <g
                           style="fill:#ffffff;fill-opacity:1"
                           id="g4853" />
                        <g
                           style="fill:#ffffff;fill-opacity:1"
                           id="g4855" />
                        <g
                           style="fill:#ffffff;fill-opacity:1"
                           id="g4857" />
                        <g
                           style="fill:#ffffff;fill-opacity:1"
                           id="g4859" />
                        <g
                           style="fill:#ffffff;fill-opacity:1"
                           id="g4861" />
                        <g
                           style="fill:#ffffff;fill-opacity:1"
                           id="g4863" />
                        <g
                           style="fill:#ffffff;fill-opacity:1"
                           id="g4865" />
                        <g
                           style="fill:#ffffff;fill-opacity:1"
                           id="g4867" />
                        <g
                           style="fill:#ffffff;fill-opacity:1"
                           id="g4869" />
                        <g
                           style="fill:#ffffff;fill-opacity:1"
                           id="g4871" />
                        <g
                           style="fill:#ffffff;fill-opacity:1"
                           id="g4873" />
                        <g
                           style="fill:#ffffff;fill-opacity:1"
                           id="g4875" />
                        <g
                           style="fill:#ffffff;fill-opacity:1"
                           id="g4877" />
                      </g>
                    </g>
                  </g>
                </g>
              </g>
            </g>
          </g>
        </g>
      </g>
    </g>
    <path
       style="fill:#3d3d3d;fill-opacity:1;fill-rule:evenodd;stroke:none;stroke-width:4.31125593;stroke-linecap:round;stroke-linejoin:round;stroke-miterlimit:4;stroke-dasharray:none;stroke-opacity:1"
       d="m 232.32436,220.29093 10.14552,26.87194 10.22326,-26.57397 c -12.10775,24.96396 -14.99864,7.43842 -20.36878,-0.29797 z"
       id="path8048-1-7-6"
       inkscape:connector-curvature="0"
       sodipodi:nodetypes="cccc" />
  </g>
</svg>
