<?xml version="1.0" encoding="UTF-8" standalone="no"?>
<!-- Created with Inkscape (http://www.inkscape.org/) -->

<svg
   xmlns:dc="http://purl.org/dc/elements/1.1/"
   xmlns:cc="http://creativecommons.org/ns#"
   xmlns:rdf="http://www.w3.org/1999/02/22-rdf-syntax-ns#"
   xmlns:svg="http://www.w3.org/2000/svg"
   xmlns="http://www.w3.org/2000/svg"
   xmlns:sodipodi="http://sodipodi.sourceforge.net/DTD/sodipodi-0.dtd"
   xmlns:inkscape="http://www.inkscape.org/namespaces/inkscape"
   width="16.126961mm"
   height="23.383718mm"
   viewBox="0 0 57.142774 82.855697"
   id="svg7498"
   version="1.1"
   inkscape:version="0.91 r13725"
   sodipodi:docname="highway.svg">
  <defs
     id="defs7500" />
  <sodipodi:namedview
     id="base"
     pagecolor="#ffffff"
     bordercolor="#666666"
     borderopacity="1.0"
     inkscape:pageopacity="0.0"
     inkscape:pageshadow="2"
     inkscape:zoom="1.979899"
     inkscape:cx="51.560946"
     inkscape:cy="-15.863529"
     inkscape:document-units="px"
     inkscape:current-layer="layer1-33"
     showgrid="false"
     inkscape:window-width="944"
     inkscape:window-height="1002"
     inkscape:window-x="960"
     inkscape:window-y="0"
     inkscape:window-maximized="0"
     fit-margin-top="0"
     fit-margin-left="0"
     fit-margin-right="0"
     fit-margin-bottom="0" />
  <metadata
     id="metadata7503">
    <rdf:RDF>
      <cc:Work
         rdf:about="">
        <dc:format>image/svg+xml</dc:format>
        <dc:type
           rdf:resource="http://purl.org/dc/dcmitype/StillImage" />
        <dc:title></dc:title>
      </cc:Work>
    </rdf:RDF>
  </metadata>
  <g
     inkscape:groupmode="layer"
     id="layer3"
     inkscape:label="Layer 2">
    <rect
       style="fill:#3d3d3d;fill-opacity:1;stroke:none;stroke-width:2;stroke-linecap:round;stroke-linejoin:round;stroke-miterlimit:4;stroke-dasharray:none;stroke-opacity:1"
       id="rect8046-5-3"
       width="52.831539"
       height="46.482655"
       x="215.23077"
       y="171.69562"
       transform="translate(-212.85719,-169.50503)" />
  </g>
  <g
     inkscape:label="Layer 1"
     inkscape:groupmode="layer"
     id="layer1"
     transform="translate(-212.85719,-169.50503)">
    <g
       id="layer1-7"
       inkscape:label="Layer 1"
       transform="translate(1.2712693,105.27361)">
      <g
         transform="translate(-5.0939289,-33.541192)"
         id="layer1-5"
         inkscape:label="Layer 1">
        <g
           transform="translate(-22.946384,31.808064)"
           id="layer1-71"
           inkscape:label="Layer 1">
          <g
             transform="matrix(0.97218825,0,0,1.0401157,2.2450165,-5.5492391)"
             id="layer1-3"
             inkscape:label="Layer 1">
            <g
               transform="translate(59.599,5.0507633)"
               id="layer1-1"
               inkscape:label="Layer 1">
              <g
                 transform="translate(-79.296975,-2.5253819)"
                 id="layer1-8"
                 inkscape:label="Layer 1">
                <g
                   transform="translate(5.5558393,-2.0203051)"
                   id="layer1-16"
                   inkscape:label="Layer 1">
                  <g
                     transform="matrix(1.0286074,0,0,0.9614315,39.072384,22.322891)"
                     id="layer1-6"
                     inkscape:label="Layer 1">
                    <g
                       transform="translate(-1.5152282,-3.5355342)"
                       id="layer1-76"
                       inkscape:label="Layer 1">
                      <g
                         transform="translate(-4.545687,-26.263966)"
                         id="layer1-33"
                         inkscape:label="Layer 1">
                        <g
                           style="fill:#ffffff;fill-opacity:1"
                           transform="matrix(0.09693528,0,0,0.09359262,225.87834,80.275694)"
                           id="g5012">
                          <g
                             style="fill:#ffffff;fill-opacity:1"
                             id="g4966">
                            <g
                               style="fill:#ffffff;fill-opacity:1"
                               id="g4968">
                              <path
                                 style="fill:#ffffff;fill-opacity:1"
                                 inkscape:connector-curvature="0"
                                 d="m 235.968,52.552 c 0.39,9.688 0.778,19.376 1.169,29.064 -7.543,0 -11.313,0 -18.855,0 0.389,-9.688 0.779,-19.376 1.167,-29.064 -15.295,0 -30.589,0 -45.884,0 -30.747,116.771 -61.499,233.539 -92.245,350.312 41.352,0 82.704,0 124.055,0 0.389,-9.689 0.778,-19.377 1.168,-29.064 14.111,0 28.222,0 42.332,0 0.392,9.688 0.78,19.375 1.168,29.064 41.352,0 82.703,0 124.055,0 C 343.351,286.093 312.6,169.324 281.853,52.552 c -15.294,0 -30.589,0 -45.885,0 z m -19.437,72.581 c 7.451,0 14.902,-0.004 22.354,-0.002 1.082,26.939 2.163,53.88 3.247,80.818 -9.616,0 -19.231,0 -28.848,0 1.086,-26.937 2.166,-53.877 3.247,-80.816 z m -8.241,205.149 c 1.081,-26.938 2.165,-53.877 3.247,-80.815 10.781,0 21.562,-0.002 32.342,-0.002 1.083,26.938 2.166,53.879 3.247,80.817 -12.944,0 -25.891,0 -38.836,0 z"
                                 id="path4970" />
                              <path
                                 style="fill:#ffffff;fill-opacity:1"
                                 inkscape:connector-curvature="0"
                                 d="m 311.929,52.552 c -6.248,0 -9.373,0 -15.621,0 38.961,116.771 77.913,233.541 116.876,350.312 14.077,0 28.155,0 42.232,0 C 407.589,286.091 359.759,169.323 311.929,52.552 Z"
                                 id="path4972" />
                              <path
                                 style="fill:#ffffff;fill-opacity:1"
                                 inkscape:connector-curvature="0"
                                 d="M 143.487,52.552 C 95.657,169.324 47.826,286.091 0,402.864 c 14.078,0 28.155,0 42.233,0 38.958,-116.771 77.915,-233.54 116.875,-350.312 -6.248,0 -9.373,0 -15.621,0 z"
                                 id="path4974" />
                            </g>
                          </g>
                          <g
                             style="fill:#ffffff;fill-opacity:1"
                             id="g4976" />
                          <g
                             style="fill:#ffffff;fill-opacity:1"
                             id="g4978" />
                          <g
                             style="fill:#ffffff;fill-opacity:1"
                             id="g4980" />
                          <g
                             style="fill:#ffffff;fill-opacity:1"
                             id="g4982" />
                          <g
                             style="fill:#ffffff;fill-opacity:1"
                             id="g4984" />
                          <g
                             style="fill:#ffffff;fill-opacity:1"
                             id="g4986" />
                          <g
                             style="fill:#ffffff;fill-opacity:1"
                             id="g4988" />
                          <g
                             style="fill:#ffffff;fill-opacity:1"
                             id="g4990" />
                          <g
                             style="fill:#ffffff;fill-opacity:1"
                             id="g4992" />
                          <g
                             style="fill:#ffffff;fill-opacity:1"
                             id="g4994" />
                          <g
                             style="fill:#ffffff;fill-opacity:1"
                             id="g4996" />
                          <g
                             style="fill:#ffffff;fill-opacity:1"
                             id="g4998" />
                          <g
                             style="fill:#ffffff;fill-opacity:1"
                             id="g5000" />
                          <g
                             style="fill:#ffffff;fill-opacity:1"
                             id="g5002" />
                          <g
                             style="fill:#ffffff;fill-opacity:1"
                             id="g5004" />
                        </g>
                      </g>
                    </g>
                  </g>
                </g>
              </g>
            </g>
          </g>
        </g>
      </g>
    </g>
    <path
       style="fill:#3d3d3d;fill-opacity:1;fill-rule:evenodd;stroke:none;stroke-width:4.31125593;stroke-linecap:round;stroke-linejoin:round;stroke-miterlimit:4;stroke-dasharray:none;stroke-opacity:1"
       d="m 232.32436,220.29093 10.14552,26.87194 10.22326,-26.57397 c -12.10775,24.96396 -14.99864,7.43842 -20.36878,-0.29797 z"
       id="path8048-1-7-6"
       inkscape:connector-curvature="0"
       sodipodi:nodetypes="cccc" />
  </g>
</svg>
