<?xml version="1.0" encoding="UTF-8" standalone="no"?>
<!-- Created with Inkscape (http://www.inkscape.org/) -->

<svg
   xmlns:dc="http://purl.org/dc/elements/1.1/"
   xmlns:cc="http://creativecommons.org/ns#"
   xmlns:rdf="http://www.w3.org/1999/02/22-rdf-syntax-ns#"
   xmlns:svg="http://www.w3.org/2000/svg"
   xmlns="http://www.w3.org/2000/svg"
   xmlns:sodipodi="http://sodipodi.sourceforge.net/DTD/sodipodi-0.dtd"
   xmlns:inkscape="http://www.inkscape.org/namespaces/inkscape"
   width="16.126961mm"
   height="23.383718mm"
   viewBox="0 0 57.142774 82.855697"
   id="svg7498"
   version="1.1"
   inkscape:version="0.91 r13725"
   sodipodi:docname="police.svg">
  <defs
     id="defs7500" />
  <sodipodi:namedview
     id="base"
     pagecolor="#ffffff"
     bordercolor="#666666"
     borderopacity="1.0"
     inkscape:pageopacity="0.0"
     inkscape:pageshadow="2"
     inkscape:zoom="1.979899"
     inkscape:cx="51.560946"
     inkscape:cy="-15.863529"
     inkscape:document-units="px"
     inkscape:current-layer="layer1-712"
     showgrid="false"
     inkscape:window-width="944"
     inkscape:window-height="1002"
     inkscape:window-x="960"
     inkscape:window-y="0"
     inkscape:window-maximized="0"
     fit-margin-top="0"
     fit-margin-left="0"
     fit-margin-right="0"
     fit-margin-bottom="0" />
  <metadata
     id="metadata7503">
    <rdf:RDF>
      <cc:Work
         rdf:about="">
        <dc:format>image/svg+xml</dc:format>
        <dc:type
           rdf:resource="http://purl.org/dc/dcmitype/StillImage" />
        <dc:title></dc:title>
      </cc:Work>
    </rdf:RDF>
  </metadata>
  <g
     inkscape:groupmode="layer"
     id="layer3"
     inkscape:label="Layer 2">
    <rect
       style="fill:#3d3d3d;fill-opacity:1;stroke:none;stroke-width:2;stroke-linecap:round;stroke-linejoin:round;stroke-miterlimit:4;stroke-dasharray:none;stroke-opacity:1"
       id="rect8046-5-3"
       width="52.831539"
       height="46.482655"
       x="215.23077"
       y="171.69562"
       transform="translate(-212.85719,-169.50503)" />
  </g>
  <g
     inkscape:label="Layer 1"
     inkscape:groupmode="layer"
     id="layer1"
     transform="translate(-212.85719,-169.50503)">
    <path
       style="fill:#3d3d3d;fill-opacity:1;fill-rule:evenodd;stroke:none;stroke-width:4.31125593;stroke-linecap:round;stroke-linejoin:round;stroke-miterlimit:4;stroke-dasharray:none;stroke-opacity:1"
       d="m 232.32436,220.29093 10.14552,26.87194 10.22326,-26.57397 c -12.10775,24.96396 -14.99864,7.43842 -20.36878,-0.29797 z"
       id="path8048-1-7-6"
       inkscape:connector-curvature="0"
       sodipodi:nodetypes="cccc" />
    <g
       id="layer1-712"
       inkscape:label="Layer 1"
       transform="translate(3.2484081,128.80603)">
      <g
         style="fill:#ffffff;fill-opacity:1"
         transform="matrix(0.08985443,0,0,0.07631027,218.45958,49.605449)"
         id="g5209">
        <g
           style="fill:#ffffff;fill-opacity:1"
           id="g5155">
          <g
             style="fill:#ffffff;fill-opacity:1"
             id="g5157">
            <path
               style="fill:#ffffff;fill-opacity:1"
               inkscape:connector-curvature="0"
               d="m 339.53,294.39 c -40.824,-15.701 -52.602,-20.406 -56.525,-21.195 -0.789,0 -2.352,0 -3.142,0.789 l -36.9,25.114 c -0.781,0.79 -1.562,1.571 -1.562,3.142 0,0.782 0,2.353 0.781,3.143 l 18.843,18.839 -21.195,21.195 c -1.574,1.574 -1.574,3.927 0,5.498 l 18.835,24.333 -25.903,51.816 c -0.782,1.566 -0.782,2.355 0,3.927 0.789,0.781 2.352,1.563 3.142,1.563 l 157.007,0 c 2.356,0 3.928,-1.563 3.928,-3.924 1.568,-18.057 7.058,-109.118 -57.309,-134.24 z"
               id="path5159" />
            <path
               style="fill:#ffffff;fill-opacity:1"
               inkscape:connector-curvature="0"
               d="m 173.885,374.466 18.841,-24.342 c 1.571,-1.562 0.786,-3.927 0,-5.49 l -21.197,-21.195 18.843,-18.847 c 0.782,-0.781 1.569,-2.353 0.782,-3.134 0,-0.789 -0.782,-2.36 -1.567,-3.142 l -36.898,-25.122 c -0.786,-0.786 -2.354,-0.786 -3.14,-0.786 -3.14,0.786 -14.913,5.498 -56.522,21.199 -64.373,25.905 -58.881,116.966 -57.308,135.023 0,2.36 1.571,3.924 3.923,3.924 l 157.009,0 0,0 c 1.571,0 2.353,-0.782 3.14,-1.563 0.786,-0.789 0.786,-2.36 0,-3.927 l -25.906,-52.598 z"
               id="path5161" />
            <path
               style="fill:#ffffff;fill-opacity:1"
               inkscape:connector-curvature="0"
               d="m 242.962,373.676 -21.19,-26.686 20.409,-20.417 c 0.781,-0.782 0.781,-1.563 0.781,-3.135 0,-1.574 -0.781,-2.355 -0.781,-3.146 L 219.414,297.53 c -1.566,-1.571 -3.925,-1.571 -5.492,0 l -22.77,22.762 c -1.567,1.571 -1.567,3.928 0,5.498 l 20.412,20.406 -21.193,26.697 c -0.785,0.781 -0.785,2.353 -0.785,3.924 l 23.551,51.812 c 0.786,1.571 2.353,2.36 3.926,2.36 1.566,0 3.138,-0.789 3.925,-2.36 l 23.546,-51.812 c 0,0.002 0,-1.569 -1.572,-3.141 z"
               id="path5163" />
            <path
               style="fill:#ffffff;fill-opacity:1"
               inkscape:connector-curvature="0"
               d="m 297.917,140.522 c -20.41,-10.99 -51.026,-17.268 -81.639,-17.268 -30.617,0 -61.233,6.278 -81.643,17.268 -0.788,0.786 -1.573,1.571 -1.573,2.356 0,0.784 0,2.354 0.786,3.14 17.274,26.692 63.59,27.477 73.007,27.477 l 0,0 20.407,0 c 9.422,0 55.743,-1.573 73.016,-27.477 0.781,-0.785 0.781,-2.356 0.781,-3.14 -1.571,-0.785 -2.353,-2.356 -3.142,-2.356 z"
               id="path5165" />
            <path
               style="fill:#ffffff;fill-opacity:1"
               inkscape:connector-curvature="0"
               d="m 216.277,261.417 0,0 0,0 c 52.597,-0.781 94.984,-43.176 94.984,-95.771 0,-1.571 0,-3.925 0,-6.282 0,-1.569 -0.781,-3.14 -2.353,-3.14 -1.57,-0.788 -3.142,0 -3.923,0.786 -22.771,22.764 -64.376,25.122 -76.935,25.122 l -21.197,0 c -12.558,0 -54.167,-1.571 -76.933,-25.122 -0.786,-0.786 -2.353,-1.573 -3.923,-0.786 -1.573,0.786 -2.354,1.571 -2.354,3.14 0,2.356 0,3.923 0,6.282 -2.358,52.595 40.035,94.989 92.634,95.771 z"
               id="path5167" />
            <path
               style="fill:#ffffff;fill-opacity:1"
               inkscape:connector-curvature="0"
               d="m 114.222,108.335 c 1.571,0.786 3.138,1.571 4.711,0.786 14.128,-7.851 58.091,-21.193 96.557,-21.193 39.247,0 83.216,13.343 97.347,21.193 0.781,0 1.57,0.785 1.57,0.785 0.782,0 1.571,0 2.353,-0.785 9.422,-8.636 16.482,-14.914 18.843,-17.269 1.567,-1.571 1.567,-3.925 0.782,-5.496 -0.782,-0.787 -1.571,-1.573 -2.353,-3.14 -3.924,-3.925 -9.422,-10.209 -11.774,-20.412 l -1.574,-5.498 C 319.113,43.178 318.331,37.682 304.201,36.113 l -3.923,0 C 285.358,34.542 261.806,32.188 242.964,15.701 227.261,1.573 220.988,0 216.277,0 c -4.713,0 -10.991,1.573 -26.691,15.701 -18.841,16.487 -42.391,18.841 -57.31,20.412 l -3.926,0 c -14.128,1.569 -15.701,7.065 -18.053,20.412 l -1.573,5.494 c -2.353,10.207 -7.851,15.701 -11.776,20.412 -0.782,0.785 -1.567,2.352 -2.353,3.138 -1.571,1.573 -0.786,3.925 0.786,5.498 3.14,2.352 9.418,8.636 18.841,17.268 z"
               id="path5169" />
            <path
               style="fill:#ffffff;fill-opacity:1"
               inkscape:connector-curvature="0"
               d="m 307.338,131.103 c 0.789,-0.785 1.57,-1.571 2.352,-3.142 l 1.571,-7.851 c 0,-1.569 -0.781,-3.925 -2.353,-3.925 -10.992,-4.707 -50.245,-18.841 -91.846,-18.841 -42.393,0 -80.862,14.134 -91.853,18.841 -1.567,0.785 -2.353,2.356 -2.353,3.925 l 1.567,7.851 c 0,1.571 0.785,2.356 2.358,3.142 0.785,0 0.785,0.783 1.566,0.783 0.786,0 1.571,0 1.571,-0.783 22.766,-10.992 53.383,-17.272 87.927,-17.272 33.755,0 65.156,6.28 87.919,17.272 -0.778,0 0.793,0 1.574,0 z"
               id="path5171" />
          </g>
        </g>
        <g
           style="fill:#ffffff;fill-opacity:1"
           id="g5173" />
        <g
           style="fill:#ffffff;fill-opacity:1"
           id="g5175" />
        <g
           style="fill:#ffffff;fill-opacity:1"
           id="g5177" />
        <g
           style="fill:#ffffff;fill-opacity:1"
           id="g5179" />
        <g
           style="fill:#ffffff;fill-opacity:1"
           id="g5181" />
        <g
           style="fill:#ffffff;fill-opacity:1"
           id="g5183" />
        <g
           style="fill:#ffffff;fill-opacity:1"
           id="g5185" />
        <g
           style="fill:#ffffff;fill-opacity:1"
           id="g5187" />
        <g
           style="fill:#ffffff;fill-opacity:1"
           id="g5189" />
        <g
           style="fill:#ffffff;fill-opacity:1"
           id="g5191" />
        <g
           style="fill:#ffffff;fill-opacity:1"
           id="g5193" />
        <g
           style="fill:#ffffff;fill-opacity:1"
           id="g5195" />
        <g
           style="fill:#ffffff;fill-opacity:1"
           id="g5197" />
        <g
           style="fill:#ffffff;fill-opacity:1"
           id="g5199" />
        <g
           style="fill:#ffffff;fill-opacity:1"
           id="g5201" />
      </g>
    </g>
  </g>
</svg>
