<?xml version="1.0" encoding="UTF-8" standalone="no"?>
<!-- Created with Inkscape (http://www.inkscape.org/) -->

<svg
   xmlns:dc="http://purl.org/dc/elements/1.1/"
   xmlns:cc="http://creativecommons.org/ns#"
   xmlns:rdf="http://www.w3.org/1999/02/22-rdf-syntax-ns#"
   xmlns:svg="http://www.w3.org/2000/svg"
   xmlns="http://www.w3.org/2000/svg"
   xmlns:sodipodi="http://sodipodi.sourceforge.net/DTD/sodipodi-0.dtd"
   xmlns:inkscape="http://www.inkscape.org/namespaces/inkscape"
   width="16.126961mm"
   height="23.383718mm"
   viewBox="0 0 57.142774 82.855697"
   id="svg7498"
   version="1.1"
   inkscape:version="0.91 r13725"
   sodipodi:docname="school.svg">
  <defs
     id="defs7500" />
  <sodipodi:namedview
     id="base"
     pagecolor="#ffffff"
     bordercolor="#666666"
     borderopacity="1.0"
     inkscape:pageopacity="0.0"
     inkscape:pageshadow="2"
     inkscape:zoom="1.979899"
     inkscape:cx="51.560946"
     inkscape:cy="-15.863529"
     inkscape:document-units="px"
     inkscape:current-layer="layer1-8"
     showgrid="false"
     inkscape:window-width="944"
     inkscape:window-height="1002"
     inkscape:window-x="960"
     inkscape:window-y="0"
     inkscape:window-maximized="0"
     fit-margin-top="0"
     fit-margin-left="0"
     fit-margin-right="0"
     fit-margin-bottom="0" />
  <metadata
     id="metadata7503">
    <rdf:RDF>
      <cc:Work
         rdf:about="">
        <dc:format>image/svg+xml</dc:format>
        <dc:type
           rdf:resource="http://purl.org/dc/dcmitype/StillImage" />
        <dc:title></dc:title>
      </cc:Work>
    </rdf:RDF>
  </metadata>
  <g
     inkscape:groupmode="layer"
     id="layer3"
     inkscape:label="Layer 2">
    <rect
       style="fill:#3d3d3d;fill-opacity:1;stroke:none;stroke-width:2;stroke-linecap:round;stroke-linejoin:round;stroke-miterlimit:4;stroke-dasharray:none;stroke-opacity:1"
       id="rect8046-5-3"
       width="52.831539"
       height="46.482655"
       x="215.23077"
       y="171.69562"
       transform="translate(-212.85719,-169.50503)" />
  </g>
  <g
     inkscape:label="Layer 1"
     inkscape:groupmode="layer"
     id="layer1"
     transform="translate(-212.85719,-169.50503)">
    <path
       style="fill:#3d3d3d;fill-opacity:1;fill-rule:evenodd;stroke:none;stroke-width:4.31125593;stroke-linecap:round;stroke-linejoin:round;stroke-miterlimit:4;stroke-dasharray:none;stroke-opacity:1"
       d="m 232.32436,220.29093 10.14552,26.87194 10.22326,-26.57397 c -12.10775,24.96396 -14.99864,7.43842 -20.36878,-0.29797 z"
       id="path8048-1-7-6"
       inkscape:connector-curvature="0"
       sodipodi:nodetypes="cccc" />
    <g
       id="layer1-712"
       inkscape:label="Layer 1"
       transform="translate(3.2484081,128.80603)">
      <g
         transform="translate(-27.779195,-47.477162)"
         id="layer1-8"
         inkscape:label="Layer 1">
        <g
           style="fill:#ffffff;fill-opacity:1"
           transform="matrix(1.251826,0,0,1.0899633,245.94165,95.286505)"
           id="g6072">
          <g
             style="fill:#ffffff;fill-opacity:1"
             id="g6010">
            <g
               style="fill:#ffffff;fill-opacity:1"
               id="g6012">
              <path
                 style="fill:#ffffff;fill-opacity:1"
                 inkscape:connector-curvature="0"
                 d="m 16.658,10.067 9.986,0 4.836,-3.979 -4.836,-3.979 -9.986,0 0,-2.109 -2.887,0 0,2.108 -11.675,0 0,7.959 11.675,0 0,19.227 -2.91,0 0,2.024 8.627,0 0,-2.024 -2.83,0 0,-19.227 z M 2.999,9.164 l 0,-6.151 23.322,0 3.737,3.075 -3.737,3.076 -23.322,0 z"
                 id="path6014" />
              <path
                 style="fill:#ffffff;fill-opacity:1"
                 inkscape:connector-curvature="0"
                 d="M 7.953,5.975 C 7.867,5.905 7.769,5.847 7.659,5.801 7.55,5.755 7.437,5.716 7.322,5.683 7.206,5.65 7.094,5.623 6.984,5.599 6.874,5.576 6.776,5.549 6.689,5.519 6.602,5.489 6.531,5.455 6.48,5.417 6.428,5.378 6.402,5.328 6.402,5.266 6.402,5.213 6.415,5.169 6.44,5.135 6.465,5.1 6.497,5.072 6.535,5.053 6.574,5.032 6.617,5.017 6.664,5.007 6.711,4.999 6.757,4.995 6.802,4.995 c 0.062,0 0.124,0.006 0.187,0.02 0.062,0.013 0.117,0.034 0.167,0.064 0.048,0.03 0.088,0.068 0.118,0.118 0.03,0.049 0.042,0.108 0.04,0.18 l 0.825,0 C 8.139,5.199 8.102,5.045 8.028,4.917 7.954,4.788 7.858,4.682 7.739,4.599 7.621,4.517 7.486,4.455 7.333,4.415 7.18,4.375 7.026,4.354 6.869,4.354 6.721,4.354 6.569,4.373 6.415,4.408 6.261,4.443 6.122,4.501 5.998,4.576 5.873,4.654 5.772,4.753 5.693,4.877 5.614,5 5.575,5.146 5.575,5.318 c 0,0.146 0.027,0.27 0.083,0.373 0.055,0.101 0.125,0.187 0.213,0.257 0.087,0.07 0.186,0.126 0.298,0.171 0.11,0.044 0.222,0.083 0.335,0.116 C 6.62,6.267 6.731,6.295 6.839,6.321 6.947,6.345 7.044,6.375 7.13,6.407 7.216,6.439 7.285,6.478 7.337,6.523 7.389,6.567 7.415,6.625 7.415,6.697 7.415,6.756 7.4,6.806 7.371,6.847 7.342,6.888 7.303,6.922 7.255,6.947 7.208,6.973 7.154,6.991 7.093,7.003 7.032,7.016 6.971,7.021 6.909,7.021 6.731,7.021 6.589,6.985 6.482,6.914 6.376,6.843 6.318,6.715 6.309,6.527 l -0.827,0 c 0,0.205 0.037,0.378 0.113,0.52 0.076,0.144 0.177,0.26 0.305,0.352 0.127,0.092 0.273,0.159 0.438,0.2 0.165,0.042 0.338,0.063 0.522,0.063 0.175,0 0.345,-0.018 0.511,-0.054 C 7.537,7.573 7.684,7.514 7.813,7.432 7.942,7.352 8.046,7.242 8.124,7.106 8.202,6.969 8.242,6.8 8.242,6.6 8.242,6.456 8.215,6.334 8.161,6.233 8.109,6.129 8.039,6.044 7.953,5.975 Z"
                 id="path6016" />
              <path
                 style="fill:#ffffff;fill-opacity:1"
                 inkscape:connector-curvature="0"
                 d="M 9.526,5.359 C 9.586,5.27 9.662,5.199 9.755,5.145 9.848,5.092 9.962,5.066 10.095,5.066 c 0.175,0 0.319,0.041 0.434,0.123 0.114,0.084 0.183,0.205 0.207,0.365 l 0.827,0 C 11.557,5.365 11.51,5.195 11.423,5.044 11.336,4.896 11.224,4.77 11.088,4.667 10.952,4.564 10.798,4.487 10.628,4.434 10.458,4.38 10.287,4.354 10.116,4.354 9.876,4.354 9.658,4.397 9.462,4.483 9.267,4.568 9.1,4.686 8.962,4.837 8.821,4.986 8.716,5.161 8.641,5.361 8.568,5.561 8.53,5.777 8.53,6.008 c 0,0.231 0.037,0.446 0.111,0.647 0.075,0.199 0.18,0.374 0.318,0.525 0.138,0.149 0.305,0.267 0.5,0.352 0.195,0.087 0.414,0.13 0.654,0.13 0.201,0 0.387,-0.028 0.56,-0.088 0.171,-0.057 0.321,-0.142 0.448,-0.252 0.128,-0.112 0.23,-0.248 0.307,-0.409 0.077,-0.161 0.121,-0.345 0.133,-0.549 l -0.827,0 C 10.719,6.548 10.658,6.692 10.55,6.795 10.442,6.899 10.29,6.951 10.094,6.951 9.961,6.951 9.847,6.924 9.754,6.871 9.661,6.818 9.585,6.745 9.526,6.656 9.467,6.567 9.424,6.467 9.397,6.355 9.37,6.241 9.357,6.126 9.357,6.007 9.357,5.888 9.37,5.773 9.397,5.66 9.424,5.549 9.466,5.448 9.526,5.359 Z"
                 id="path6018" />
              <polygon
                 style="fill:#ffffff;fill-opacity:1"
                 points="13.908,4.422 13.908,5.577 12.819,5.577 12.819,4.422 11.993,4.422 11.993,7.594 12.819,7.594 12.819,6.287 13.908,6.287 13.908,7.594 14.734,7.594 14.734,4.422 "
                 id="polygon6020" />
              <path
                 style="fill:#ffffff;fill-opacity:1"
                 inkscape:connector-curvature="0"
                 d="M 17.894,4.837 C 17.76,4.687 17.597,4.568 17.403,4.483 17.209,4.397 16.987,4.354 16.738,4.354 c -0.249,0 -0.47,0.043 -0.664,0.129 -0.194,0.085 -0.358,0.203 -0.491,0.354 -0.133,0.149 -0.235,0.324 -0.305,0.524 -0.069,0.199 -0.104,0.416 -0.104,0.646 0,0.231 0.035,0.446 0.104,0.647 0.07,0.199 0.172,0.374 0.305,0.524 0.133,0.149 0.297,0.267 0.491,0.353 0.194,0.087 0.416,0.13 0.664,0.13 0.249,0 0.47,-0.043 0.665,-0.13 0.193,-0.085 0.356,-0.202 0.491,-0.353 0.133,-0.15 0.233,-0.325 0.305,-0.524 0.068,-0.201 0.104,-0.416 0.104,-0.647 0,-0.23 -0.035,-0.447 -0.104,-0.646 -0.072,-0.2 -0.172,-0.375 -0.305,-0.524 z m -0.457,1.518 c -0.027,0.111 -0.07,0.212 -0.13,0.301 -0.059,0.089 -0.136,0.161 -0.229,0.214 -0.094,0.053 -0.207,0.08 -0.34,0.08 -0.133,0 -0.247,-0.027 -0.34,-0.08 C 16.304,6.817 16.228,6.745 16.169,6.656 16.11,6.567 16.067,6.467 16.04,6.355 16.014,6.241 16,6.126 16,6.007 16,5.888 16.014,5.773 16.04,5.66 c 0.027,-0.112 0.07,-0.213 0.129,-0.302 0.059,-0.089 0.135,-0.16 0.229,-0.214 0.093,-0.053 0.207,-0.079 0.34,-0.079 0.133,0 0.247,0.026 0.34,0.079 0.093,0.054 0.169,0.125 0.229,0.214 0.061,0.089 0.104,0.189 0.13,0.302 0.025,0.112 0.04,0.228 0.04,0.347 -0.002,0.119 -0.015,0.234 -0.04,0.348 z"
                 id="path6022" />
              <path
                 style="fill:#ffffff;fill-opacity:1"
                 inkscape:connector-curvature="0"
                 d="M 21.35,4.837 C 21.217,4.687 21.053,4.568 20.86,4.483 20.666,4.397 20.444,4.354 20.196,4.354 c -0.249,0 -0.471,0.043 -0.665,0.129 -0.194,0.085 -0.357,0.203 -0.491,0.354 -0.134,0.149 -0.235,0.324 -0.305,0.524 -0.069,0.199 -0.105,0.416 -0.105,0.646 0,0.231 0.035,0.446 0.104,0.647 0.069,0.199 0.171,0.374 0.305,0.524 0.133,0.149 0.297,0.267 0.491,0.353 0.194,0.087 0.416,0.13 0.665,0.13 0.249,0 0.47,-0.043 0.664,-0.13 0.193,-0.085 0.357,-0.202 0.49,-0.353 0.134,-0.15 0.234,-0.325 0.306,-0.524 0.068,-0.201 0.104,-0.416 0.104,-0.647 0,-0.23 -0.035,-0.447 -0.104,-0.646 C 21.584,5.161 21.484,4.986 21.35,4.837 Z M 20.892,6.355 C 20.867,6.466 20.824,6.567 20.763,6.656 20.704,6.745 20.627,6.817 20.534,6.87 20.44,6.923 20.327,6.95 20.194,6.95 20.061,6.95 19.947,6.923 19.854,6.87 19.76,6.817 19.685,6.745 19.625,6.656 19.566,6.567 19.523,6.467 19.496,6.355 19.47,6.241 19.456,6.126 19.456,6.007 c 0,-0.119 0.013,-0.234 0.04,-0.347 0.027,-0.112 0.07,-0.213 0.129,-0.302 0.061,-0.089 0.136,-0.16 0.229,-0.214 0.093,-0.053 0.207,-0.079 0.34,-0.079 0.133,0 0.247,0.026 0.34,0.079 0.093,0.054 0.169,0.125 0.229,0.214 0.061,0.089 0.104,0.189 0.129,0.302 0.026,0.113 0.04,0.228 0.04,0.347 0,0.119 -0.013,0.234 -0.04,0.348 z"
                 id="path6024" />
              <polygon
                 style="fill:#ffffff;fill-opacity:1"
                 points="23.036,6.883 23.036,4.422 22.208,4.422 22.208,7.594 24.514,7.594 24.514,6.883 "
                 id="polygon6026" />
              <path
                 style="fill:#ffffff;fill-opacity:1"
                 inkscape:connector-curvature="0"
                 d="M 1.753,19.047 C 1.568,17.374 2.37,16.361 2.678,16.04 c 0.285,1.731 1.78,3.063 3.593,3.063 1.716,0 3.151,-1.196 3.541,-2.795 0.295,0.521 0.794,1.59 0.672,2.738 C 13.53,19.021 12.029,15.541 9.896,15.161 9.88,14.982 9.864,14.804 9.826,14.633 9.701,13.534 8.716,11.298 5.893,11.364 3.46,11.422 2.928,13.253 2.802,14.368 2.716,14.643 2.66,14.931 2.643,15.229 c -3.17,0.55 -2.822,3.765 -0.89,3.818 z M 4.56,14.418 c 0,0 0.312,0.107 0.312,1.124 0.538,0.187 1.473,-1.581 1.473,-1.581 l 0,1.391 c 0.596,0.162 2.467,-0.05 2.467,-0.05 l 0.069,0.057 c 0.002,0.031 0.009,0.062 0.009,0.091 0,1.442 -1.175,2.62 -2.62,2.62 -1.425,0 -2.582,-1.146 -2.613,-2.562 0.521,-0.191 0.903,-1.09 0.903,-1.09 z"
                 id="path6028" />
              <polygon
                 style="fill:#ffffff;fill-opacity:1"
                 points="4.633,27.393 4.633,31.301 4.237,31.301 4.237,31.759 6.041,31.759 6.041,31.301 6.041,31.301 6.041,27.393 6.717,27.393 6.717,31.301 6.717,31.759 8.518,31.759 8.518,31.301 8.123,31.301 8.123,27.393 10.461,27.393 8.156,22.898 8.281,21.326 10.482,24.275 11.942,23.914 8.451,19.195 7.03,19.195 5.494,19.195 4.206,19.195 0.62,23.518 1.258,24.843 4.07,21.621 4.232,22.898 1.619,27.393 "
                 id="polygon6030" />
              <path
                 style="fill:#ffffff;fill-opacity:1"
                 inkscape:connector-curvature="0"
                 d="m 24.054,11.363 c -0.771,0 -1.776,0.63 -2.322,1.094 -0.681,0.574 -0.145,1.081 -0.145,2.041 0,1.736 1.402,3.137 3.136,3.137 1.732,0 3.137,-1.4 3.137,-3.137 0,-1.081 0.379,-2.072 -0.455,-2.637 -0.5,-0.334 -2.699,-0.498 -3.351,-0.498 z m 0.741,5.543 c -1.268,0 -2.294,-1.045 -2.294,-2.335 0,-0.132 0.019,-0.256 0.038,-0.381 0.576,-0.106 0.968,0.087 0.968,0.087 l 0.962,-0.472 c 0,0 -0.488,0.71 -0.048,0.472 0.979,-0.33 2.074,-0.193 2.632,-0.084 0.021,0.124 0.039,0.246 0.039,0.378 -10e-4,1.29 -1.027,2.335 -2.297,2.335 z"
                 id="path6032" />
              <polygon
                 style="fill:#ffffff;fill-opacity:1"
                 points="24.493,26.344 25.168,26.344 25.168,30.254 25.168,30.713 26.969,30.713 26.969,30.254 26.575,30.254 26.575,26.344 27.332,26.344 27.332,21.297 29.306,24.049 30.069,22.826 26.931,18.148 22.786,18.148 19.239,23.585 20.322,24.729 22.569,20.754 22.46,26.344 23.084,26.344 23.084,30.254 22.689,30.254 22.689,30.713 24.493,30.713 24.493,30.254 "
                 id="polygon6034" />
            </g>
          </g>
          <g
             style="fill:#ffffff;fill-opacity:1"
             id="g6036" />
          <g
             style="fill:#ffffff;fill-opacity:1"
             id="g6038" />
          <g
             style="fill:#ffffff;fill-opacity:1"
             id="g6040" />
          <g
             style="fill:#ffffff;fill-opacity:1"
             id="g6042" />
          <g
             style="fill:#ffffff;fill-opacity:1"
             id="g6044" />
          <g
             style="fill:#ffffff;fill-opacity:1"
             id="g6046" />
          <g
             style="fill:#ffffff;fill-opacity:1"
             id="g6048" />
          <g
             style="fill:#ffffff;fill-opacity:1"
             id="g6050" />
          <g
             style="fill:#ffffff;fill-opacity:1"
             id="g6052" />
          <g
             style="fill:#ffffff;fill-opacity:1"
             id="g6054" />
          <g
             style="fill:#ffffff;fill-opacity:1"
             id="g6056" />
          <g
             style="fill:#ffffff;fill-opacity:1"
             id="g6058" />
          <g
             style="fill:#ffffff;fill-opacity:1"
             id="g6060" />
          <g
             style="fill:#ffffff;fill-opacity:1"
             id="g6062" />
          <g
             style="fill:#ffffff;fill-opacity:1"
             id="g6064" />
        </g>
      </g>
    </g>
  </g>
</svg>
