<?xml version="1.0" encoding="UTF-8" standalone="no"?>
<!-- Created with Inkscape (http://www.inkscape.org/) -->

<svg
   xmlns:dc="http://purl.org/dc/elements/1.1/"
   xmlns:cc="http://creativecommons.org/ns#"
   xmlns:rdf="http://www.w3.org/1999/02/22-rdf-syntax-ns#"
   xmlns:svg="http://www.w3.org/2000/svg"
   xmlns="http://www.w3.org/2000/svg"
   xmlns:sodipodi="http://sodipodi.sourceforge.net/DTD/sodipodi-0.dtd"
   xmlns:inkscape="http://www.inkscape.org/namespaces/inkscape"
   width="16.126961mm"
   height="23.383718mm"
   viewBox="0 0 57.142774 82.855697"
   id="svg7498"
   version="1.1"
   inkscape:version="0.91 r13725"
   sodipodi:docname="train.svg">
  <defs
     id="defs7500" />
  <sodipodi:namedview
     id="base"
     pagecolor="#ffffff"
     bordercolor="#666666"
     borderopacity="1.0"
     inkscape:pageopacity="0.0"
     inkscape:pageshadow="2"
     inkscape:zoom="1.979899"
     inkscape:cx="51.560946"
     inkscape:cy="-15.863529"
     inkscape:document-units="px"
     inkscape:current-layer="layer1-80"
     showgrid="false"
     inkscape:window-width="944"
     inkscape:window-height="1002"
     inkscape:window-x="960"
     inkscape:window-y="0"
     inkscape:window-maximized="0"
     fit-margin-top="0"
     fit-margin-left="0"
     fit-margin-right="0"
     fit-margin-bottom="0" />
  <metadata
     id="metadata7503">
    <rdf:RDF>
      <cc:Work
         rdf:about="">
        <dc:format>image/svg+xml</dc:format>
        <dc:type
           rdf:resource="http://purl.org/dc/dcmitype/StillImage" />
        <dc:title></dc:title>
      </cc:Work>
    </rdf:RDF>
  </metadata>
  <g
     inkscape:groupmode="layer"
     id="layer3"
     inkscape:label="Layer 2">
    <rect
       style="fill:#3d3d3d;fill-opacity:1;stroke:none;stroke-width:2;stroke-linecap:round;stroke-linejoin:round;stroke-miterlimit:4;stroke-dasharray:none;stroke-opacity:1"
       id="rect8046-5-3"
       width="52.831539"
       height="46.482655"
       x="215.23077"
       y="171.69562"
       transform="translate(-212.85719,-169.50503)" />
  </g>
  <g
     inkscape:label="Layer 1"
     inkscape:groupmode="layer"
     id="layer1"
     transform="translate(-212.85719,-169.50503)">
    <path
       style="fill:#3d3d3d;fill-opacity:1;fill-rule:evenodd;stroke:none;stroke-width:4.31125593;stroke-linecap:round;stroke-linejoin:round;stroke-miterlimit:4;stroke-dasharray:none;stroke-opacity:1"
       d="m 232.32436,220.29093 10.14552,26.87194 10.22326,-26.57397 c -12.10775,24.96396 -14.99864,7.43842 -20.36878,-0.29797 z"
       id="path8048-1-7-6"
       inkscape:connector-curvature="0"
       sodipodi:nodetypes="cccc" />
    <g
       id="layer1-712"
       inkscape:label="Layer 1"
       transform="translate(3.2484081,128.80603)">
      <g
         transform="translate(-27.779195,-47.477162)"
         id="layer1-8"
         inkscape:label="Layer 1">
        <g
           transform="translate(43.941636,11.616753)"
           id="layer1-80"
           inkscape:label="Layer 1">
          <g
             style="fill:#ffffff;fill-opacity:1"
             transform="matrix(0.10048633,0,0,0.07034469,196.39605,84.810606)"
             id="g6214">
            <g
               style="fill:#ffffff;fill-opacity:1"
               id="g6172">
              <g
                 style="fill:#ffffff;fill-opacity:1"
                 id="g6174">
                <path
                   style="fill:#ffffff;fill-opacity:1"
                   inkscape:connector-curvature="0"
                   d="M 370.321,0 140.822,0 C 107.573,0 84.891,0 84.891,38.25 l 0,296.438 c 0,56.782 25.073,56.782 55.931,57.375 l 14.458,0 -82.19,124.312 43.433,0 58.972,-89.247 161.769,2.592 56.963,86.655 49.057,0 -81.07,-124.312 8.107,0 c 40.861,0 39.695,-30.973 39.695,-57.375 l 0,-296.438 C 410.017,11.848 396.724,0 370.321,0 Z m -170.68,28.688 c 0,-5.278 4.284,-9.562 9.562,-9.562 l 76.5,0 c 5.277,0 9.562,4.284 9.562,9.562 l 0,19.125 c 0,5.278 -4.285,9.562 -9.562,9.562 l -76.5,0 c -5.278,0 -9.562,-4.284 -9.562,-9.562 l 0,-19.125 z m -66.937,71.068 c 0,-22.061 20.961,-23.256 36.806,-23.256 l 181.687,0 c 15.846,0 20.57,4.427 20.57,23.256 l 0,45.451 c 0,36.682 1.367,46.043 -20.57,46.043 l -181.687,0 c -25.475,0.201 -36.806,-4.982 -36.806,-46.043 l 0,-45.451 z m 29.031,249.275 c -16.83,0 -30.485,-13.646 -30.485,-30.485 0,-16.83 13.646,-30.485 30.485,-30.485 16.839,0 30.485,13.646 30.485,30.485 0,16.839 -13.645,30.485 -30.485,30.485 z m 181.688,0 c -16.83,0 -30.484,-13.646 -30.484,-30.485 0,-16.83 13.645,-30.485 30.484,-30.485 16.839,0 30.484,13.646 30.484,30.485 0,16.839 -13.644,30.485 -30.484,30.485 z"
                   id="path6176" />
              </g>
            </g>
            <g
               style="fill:#ffffff;fill-opacity:1"
               id="g6178" />
            <g
               style="fill:#ffffff;fill-opacity:1"
               id="g6180" />
            <g
               style="fill:#ffffff;fill-opacity:1"
               id="g6182" />
            <g
               style="fill:#ffffff;fill-opacity:1"
               id="g6184" />
            <g
               style="fill:#ffffff;fill-opacity:1"
               id="g6186" />
            <g
               style="fill:#ffffff;fill-opacity:1"
               id="g6188" />
            <g
               style="fill:#ffffff;fill-opacity:1"
               id="g6190" />
            <g
               style="fill:#ffffff;fill-opacity:1"
               id="g6192" />
            <g
               style="fill:#ffffff;fill-opacity:1"
               id="g6194" />
            <g
               style="fill:#ffffff;fill-opacity:1"
               id="g6196" />
            <g
               style="fill:#ffffff;fill-opacity:1"
               id="g6198" />
            <g
               style="fill:#ffffff;fill-opacity:1"
               id="g6200" />
            <g
               style="fill:#ffffff;fill-opacity:1"
               id="g6202" />
            <g
               style="fill:#ffffff;fill-opacity:1"
               id="g6204" />
            <g
               style="fill:#ffffff;fill-opacity:1"
               id="g6206" />
          </g>
        </g>
      </g>
    </g>
  </g>
</svg>
