<?xml version="1.0" encoding="iso-8859-1"?>
<!-- Generator: Adobe Illustrator 17.1.0, SVG Export Plug-In . SVG Version: 6.00 Build 0)  -->
<!DOCTYPE svg PUBLIC "-//W3C//DTD SVG 1.1//EN" "http://www.w3.org/Graphics/SVG/1.1/DTD/svg11.dtd">
<svg version="1.1" id="Capa_1" xmlns="http://www.w3.org/2000/svg" xmlns:xlink="http://www.w3.org/1999/xlink" x="0px" y="0px"
	 viewBox="0 0 167.254 167.254" style="enable-background:new 0 0 167.254 167.254;" xml:space="preserve">
<path d="M167.244,111.457c-0.005-0.229-0.024-0.457-0.069-0.682c-0.006-0.029-0.014-0.057-0.021-0.085
	c-0.044-0.199-0.107-0.395-0.182-0.588c-0.025-0.063-0.05-0.126-0.077-0.188c-0.018-0.04-0.031-0.082-0.05-0.121L155.16,85.95
	c3.59-1.442,6.134-4.951,6.134-9.049V30.666c0-5.623-4.575-10.197-10.198-10.197c-0.617,0-1.243,0.056-1.858,0.167
	c-2.155,0.387-4.098,1.479-5.563,3.035C134.32,12.933,107.971,7.228,82.888,7.228c-24.49,0-50.188,5.439-60.096,15.69
	c-1.345-1.155-2.986-1.962-4.775-2.283c-0.615-0.111-1.241-0.167-1.858-0.167c-5.623,0-10.198,4.574-10.198,10.197v46.235
	c0,4.098,2.544,7.608,6.134,9.049L0.409,109.792c-0.02,0.04-0.032,0.081-0.05,0.122c-0.028,0.062-0.052,0.124-0.077,0.187
	c-0.075,0.193-0.138,0.388-0.182,0.587c-0.007,0.03-0.015,0.058-0.021,0.088c-0.045,0.225-0.063,0.453-0.069,0.681
	C0.009,111.49,0,111.52,0,111.553v30.639c0,2.209,1.791,4,4,4h10.782v9.834c0,2.209,1.791,4,4,4h17.068c2.209,0,4-1.791,4-4v-9.834
	h89v9.834c0,2.209,1.791,4,4,4h17.069c2.209,0,4-1.791,4-4v-9.834h9.334c2.209,0,4-1.791,4-4v-30.639
	C167.254,111.52,167.245,111.49,167.244,111.457z M93.488,45.673c0-2.289,1.862-4.151,4.15-4.151h31.31
	c2.288,0,4.15,1.862,4.15,4.151v18.204c0,2.288-1.862,4.15-4.15,4.15h-31.31c-2.288,0-4.15-1.862-4.15-4.15V45.673z M34.154,45.673
	c0-2.289,1.862-4.151,4.151-4.151h31.31c2.288,0,4.15,1.862,4.15,4.151v18.204c0,2.288-1.862,4.15-4.15,4.15h-31.31
	c-2.289,0-4.151-1.862-4.151-4.15V45.673z M10.416,107.553L28.39,70.877c2.203,3.11,5.822,5.15,9.915,5.15h31.31
	c4.502,0,8.431-2.466,10.53-6.113h6.964c2.099,3.647,6.028,6.113,10.53,6.113h31.31c4.093,0,7.712-2.04,9.915-5.151l17.975,36.676
	H10.416z"/>
<g>
</g>
<g>
</g>
<g>
</g>
<g>
</g>
<g>
</g>
<g>
</g>
<g>
</g>
<g>
</g>
<g>
</g>
<g>
</g>
<g>
</g>
<g>
</g>
<g>
</g>
<g>
</g>
<g>
</g>
</svg>
