<?xml version="1.0" encoding="iso-8859-1"?>
<!-- Generator: Adobe Illustrator 18.1.1, SVG Export Plug-In . SVG Version: 6.00 Build 0)  -->
<svg version="1.1" id="Capa_1" xmlns="http://www.w3.org/2000/svg" xmlns:xlink="http://www.w3.org/1999/xlink" x="0px" y="0px"
	 viewBox="0 0 290 290" style="enable-background:new 0 0 290 290;" xml:space="preserve">
<g>
	<path id="path29724" d="M140,47.464c-16.534,0-30,13.466-30,30c-0.039,2.761,2.168,5.032,4.929,5.071s5.032-2.168,5.071-4.929
		c0.001-0.047,0.001-0.094,0-0.141c0-11.166,8.834-20,20-20c10.63,0,19.052,8.035,19.846,18.438l-18.75,23.438
		c-0.71,0.887-1.096,1.989-1.096,3.125v22.006L2.639,198.056C1.014,198.927,0,200.621,0,202.464v25c0,2.761,2.239,5,5,5h65v5
		c-0.039,2.761,2.168,5.032,4.929,5.071c2.761,0.039,5.032-2.168,5.071-4.929c0.001-0.047,0.001-0.094,0-0.141v-5h130v5
		c-0.039,2.761,2.168,5.032,4.929,5.071c2.761,0.039,5.032-2.168,5.071-4.929c0.001-0.047,0.001-0.094,0-0.141v-5h65
		c2.761,0,5-2.239,5-5v-25c0-1.843-1.014-3.538-2.639-4.408L150,124.47v-20.252l18.904-23.631C169.613,79.701,170,78.6,170,77.464
		C170,60.931,156.534,47.464,140,47.464z M140,62.464c-8.255,0-15,6.745-15,15c-0.02,1.381,1.084,2.516,2.465,2.535
		c1.381,0.02,2.516-1.084,2.535-2.465c0-0.024,0-0.047,0-0.071c0-5.552,4.448-10,10-10c1.381,0.02,2.516-1.084,2.535-2.465
		c0.02-1.381-1.084-2.516-2.465-2.535C140.047,62.464,140.024,62.464,140,62.464z M145,133.136l135,72.32v17.008h-60v-5
		c0.04-2.761-2.166-5.032-4.928-5.072c-0.05-0.001-0.099-0.001-0.149,0c-2.76,0.042-4.964,2.312-4.924,5.072v5H80v-5
		c0.04-2.761-2.166-5.032-4.928-5.072c-0.05-0.001-0.099-0.001-0.149,0c-2.76,0.042-4.964,2.312-4.924,5.072v5H10v-17.008
		L145,133.136z M144.984,141.964c-1.381-0.008-2.507,1.105-2.515,2.485c-0.006,0.94,0.516,1.803,1.351,2.235l125,66.965
		c1.207,0.671,2.729,0.236,3.4-0.972c0.671-1.207,0.236-2.729-0.972-3.4c-0.023-0.013-0.046-0.025-0.069-0.037l-125-66.965
		C145.814,142.074,145.403,141.967,144.984,141.964z"/>
</g>
<g>
</g>
<g>
</g>
<g>
</g>
<g>
</g>
<g>
</g>
<g>
</g>
<g>
</g>
<g>
</g>
<g>
</g>
<g>
</g>
<g>
</g>
<g>
</g>
<g>
</g>
<g>
</g>
<g>
</g>
</svg>
